# File created by Blade
# Date/Time:  Thu Sep 25 17:43:48 2014
# Frame Rate: 120.000 fps
#------------------------------------------------------
:FULLY-SPECIFIED
:DEGREES
383
root -21.392273 32.992613 -6.155999 -354.048070 15.474363 -1.565116
Spine -1.961604 8.139358 -0.170005
Head 11.549398 23.246054 10.410439
LeftShoulder -15.026369 18.448231 27.383432
LeftArm 23.307385 -25.011129 -21.785695
LeftForeArm 10.786485 0.000000 18.660109
LeftHand -29.916153 -0.000000 3.852600
LeftHandThumb1 -26.253704 0.000000 33.147579
RightShoulder -17.164873 12.414275 -37.233156
RightArm -14.379162 5.802180 35.787118
RightForeArm -29.740036 -0.000000 26.704785
RightHand -14.650737 0.000000 -2.427160
RightHandThumb1 -24.326973 -0.000000 -32.862282
LeftUpLeg -5.230695 -11.877594 3.327767
LeftLeg -1.055102 -0.000000 0.000000
LeftFoot -14.548062 15.657139 333.905450
LeftToeBase 2.019270 -0.000000 -0.000000
RightUpLeg -10.468087 -9.275042 6.045276
RightLeg 14.753034 -0.000000 -0.000000
RightFoot -14.052312 -8.433726 -5.769760
RightToeBase -4.205439 -0.000000 0.000000
384
root -21.318416 32.980781 -6.152312 -353.945806 15.671499 -1.385661
Spine -2.091108 8.122600 -0.344395
Head 11.753000 23.006176 10.420347
LeftShoulder -15.119785 18.335776 27.560072
LeftArm 23.303468 -24.844016 -21.499191
LeftForeArm 10.606895 -0.000000 18.350542
LeftHand -30.076949 -0.000000 3.850684
LeftHandThumb1 -26.253704 0.000000 33.147579
RightShoulder -17.250717 12.329731 -37.420368
RightArm -14.252996 5.804097 35.292777
RightForeArm -29.492390 -0.000000 26.415228
RightHand -14.764639 -0.000000 -2.564363
RightHandThumb1 -24.326973 -0.000000 -32.862282
LeftUpLeg -5.251562 -11.954611 3.042791
LeftLeg -1.105563 -0.000000 0.000000
LeftFoot -14.485947 15.576223 334.106628
LeftToeBase 2.003545 -0.000000 -0.000000
RightUpLeg -10.143131 -9.511639 5.825952
RightLeg 13.939318 -0.000000 -0.000000
RightFoot -13.525734 -8.557986 -7.045598
RightToeBase -2.930660 -0.000000 0.000000
385
root -21.245661 32.969306 -6.151694 -353.829112 15.848440 -1.213942
Spine -2.238884 8.108720 -0.480085
Head 11.968326 22.773833 10.396167
LeftShoulder -15.187595 18.247534 27.680924
LeftArm 23.278380 -24.637253 -21.193139
LeftForeArm 10.370307 0.000000 18.087632
LeftHand -30.321866 0.000000 3.757545
LeftHandThumb1 -26.253704 0.000000 33.147579
RightShoulder -17.256796 12.410327 -37.642289
RightArm -14.330790 6.150706 34.755024
RightForeArm -29.656955 -0.000000 26.168327
RightHand -14.723340 0.000000 -2.514669
RightHandThumb1 -24.326973 -0.000000 -32.862282
LeftUpLeg -5.266804 -12.174340 2.786446
LeftLeg -1.200989 -0.000000 0.000000
LeftFoot -14.477117 15.594875 334.216363
LeftToeBase 1.974723 -0.000000 -0.000000
RightUpLeg -9.890548 -9.910032 5.581763
RightLeg 13.254109 -0.000000 -0.000000
RightFoot -13.675497 -8.519802 -6.577370
RightToeBase -2.542433 -0.000000 0.000000
386
root -21.170672 32.958349 -6.145327 -353.751057 15.947912 -1.047519
Spine -2.347535 8.182405 -0.604624
Head 12.220757 22.558713 10.361063
LeftShoulder -15.185618 18.127390 27.865769
LeftArm 23.143320 -24.376733 -20.975982
LeftForeArm 10.180225 -0.000000 17.819036
LeftHand -30.445503 -0.000000 3.626996
LeftHandThumb1 -26.253704 0.000000 33.147579
RightShoulder -17.379593 12.329782 -37.839815
RightArm -14.172112 6.308521 34.324790
RightForeArm -29.574286 -0.000000 25.837944
RightHand -14.389999 -0.000000 -2.428012
RightHandThumb1 -24.326973 -0.000000 -32.862282
LeftUpLeg -5.200439 -12.346319 2.512760
LeftLeg -1.334088 -0.000000 0.000000
LeftFoot -14.454007 15.672867 334.348302
LeftToeBase 1.974396 -0.000000 -0.000000
RightUpLeg -9.585755 -10.268499 5.298373
RightLeg 12.594866 -0.000000 -0.000000
RightFoot -13.699468 -8.745433 -6.095350
RightToeBase -3.289371 -0.000000 0.000000
387
root -21.097966 32.949449 -6.138620 -353.656323 15.976068 -0.894943
Spine -2.479684 8.261489 -0.702754
Head 12.471040 22.384347 10.249052
LeftShoulder -15.325480 18.196910 27.888028
LeftArm 23.208410 -24.311215 -20.828699
LeftForeArm 10.000173 -0.000000 17.502411
LeftHand -30.380311 -0.000000 3.651033
LeftHandThumb1 -26.253704 0.000000 33.147579
RightShoulder -17.369420 12.446588 -38.033999
RightArm -14.222288 6.394006 33.850400
RightForeArm -29.526567 -0.000000 25.591460
RightHand -14.531541 -0.000000 -2.228141
RightHandThumb1 -24.326973 -0.000000 -32.862282
LeftUpLeg -5.146688 -12.523271 2.257069
LeftLeg -1.467903 -0.000000 0.000000
LeftFoot -14.482646 15.804972 334.467194
LeftToeBase 2.145822 -0.000000 -0.000000
RightUpLeg -9.335475 -10.664299 5.014979
RightLeg 12.047722 -0.000000 -0.000000
RightFoot -13.617472 -8.723743 -5.894399
RightToeBase -3.149232 -0.000000 0.000000
388
root -21.029525 32.940901 -6.130985 -353.574761 16.000605 -0.755796
Spine -2.603106 8.367300 -0.794427
Head 12.753403 22.204569 10.188255
LeftShoulder -15.471015 18.279151 27.896632
LeftArm 23.362938 -24.493050 -20.890747
LeftForeArm 10.064558 -0.000000 17.331156
LeftHand -30.187879 -0.000000 3.859669
LeftHandThumb1 -26.253704 0.000000 33.147579
RightShoulder -17.400181 12.466624 -38.240683
RightArm -14.163750 6.458754 33.515387
RightForeArm -29.422347 0.000000 25.205901
RightHand -14.420523 -0.000000 -2.206251
RightHandThumb1 -24.326973 -0.000000 -32.862282
LeftUpLeg -5.091591 -12.636880 2.016586
LeftLeg -1.583416 -0.000000 0.000000
LeftFoot -14.525203 15.889959 334.506853
LeftToeBase 2.316895 -0.000000 -0.000000
RightUpLeg -9.153824 -11.098469 4.736464
RightLeg 11.723526 -0.000000 -0.000000
RightFoot -13.706817 -8.286890 -5.547290
RightToeBase -1.394979 -0.000000 0.000000
389
root -20.968972 32.935992 -6.119896 -353.550040 15.962372 -0.680995
Spine -2.659055 8.513370 -0.812002
Head 13.048920 22.075196 10.071569
LeftShoulder -15.612780 18.233768 27.913700
LeftArm 23.396610 -24.412406 -20.874281
LeftForeArm 9.990738 -0.000000 17.196077
LeftHand -30.351921 -0.000000 3.670462
LeftHandThumb1 -26.253704 0.000000 33.147579
RightShoulder -17.579952 12.573350 -38.492439
RightArm -13.928768 6.389099 33.277872
RightForeArm -29.383994 -0.000000 24.703492
RightHand -14.289467 -0.000000 -2.138234
RightHandThumb1 -24.326973 -0.000000 -32.862282
LeftUpLeg -4.991559 -12.625328 1.835239
LeftLeg -1.675321 -0.000000 0.000000
LeftFoot -14.580939 15.901437 334.504214
LeftToeBase 2.459966 -0.000000 -0.000000
RightUpLeg -8.895620 -11.500528 4.536375
RightLeg 11.268479 -0.000000 -0.000000
RightFoot -13.569717 -7.454097 -5.489631
RightToeBase 0.216200 -0.000000 -0.000000
390
root -20.914113 32.932832 -6.106861 -353.542822 15.902776 -0.652813
Spine -2.708896 8.650349 -0.787536
Head 13.329429 21.947377 9.996392
LeftShoulder -15.765183 18.194318 27.903111
LeftArm 23.463281 -24.376166 -20.894632
LeftForeArm 10.135275 -0.000000 16.902939
LeftHand -29.799280 -0.000000 3.586820
LeftHandThumb1 -26.253704 0.000000 33.147579
RightShoulder -17.557063 12.526612 -38.666898
RightArm -13.790463 6.336642 33.085607
RightForeArm -29.166844 -0.000000 24.196236
RightHand -14.145152 -0.000000 -2.182938
RightHandThumb1 -24.326973 -0.000000 -32.862282
LeftUpLeg -4.872150 -12.593512 1.706757
LeftLeg -1.794964 -0.000000 0.000000
LeftFoot -14.619318 15.894816 334.500458
LeftToeBase 2.404277 -0.000000 -0.000000
RightUpLeg -8.537138 -11.642204 4.374155
RightLeg 10.606876 -0.000000 -0.000000
RightFoot -13.173923 -6.766038 -5.678824
RightToeBase 0.695786 -0.000000 -0.000000
391
root -20.873204 32.934615 -6.091066 -353.594102 15.807769 -0.750633
Spine -2.700748 8.837546 -0.619052
Head 13.613233 21.878415 9.884877
LeftShoulder -15.932714 18.155582 27.878731
LeftArm 23.554133 -24.363610 -21.041927
LeftForeArm 10.207248 -0.000000 16.829782
LeftHand -30.078842 -0.000000 3.866354
LeftHandThumb1 -26.253704 0.000000 33.147579
RightShoulder -17.559248 12.487040 -38.787076
RightArm -13.730688 6.693983 32.844388
RightForeArm -29.289980 -0.000000 23.919062
RightHand -13.976940 -0.000000 -2.066777
RightHandThumb1 -24.326973 -0.000000 -32.862282
LeftUpLeg -4.726860 -12.452042 1.710705
LeftLeg -1.903793 -0.000000 0.000000
LeftFoot -14.660645 15.779222 334.473733
LeftToeBase 2.421535 -0.000000 -0.000000
RightUpLeg -8.058871 -11.654278 4.312558
RightLeg 9.694527 -0.000000 -0.000000
RightFoot -12.613000 -6.091841 -5.519642
RightToeBase 0.597464 -0.000000 -0.000000
392
root -20.828037 32.937892 -6.076754 -353.632130 15.722396 -0.842752
Spine -2.707141 9.021140 -0.428889
Head 13.904546 21.771290 9.711390
LeftShoulder -16.048834 18.189585 27.840793
LeftArm 23.594706 -24.408763 -21.254222
LeftForeArm 10.346336 -0.000000 16.815608
LeftHand -30.163200 0.000000 4.179638
LeftHandThumb1 -26.253704 0.000000 33.147579
RightShoulder -17.596157 12.542513 -39.033516
RightArm -13.658994 6.699024 32.755588
RightForeArm -29.242117 -0.000000 23.577906
RightHand -14.231243 -0.000000 -1.941687
RightHandThumb1 -24.326973 -0.000000 -32.862282
LeftUpLeg -4.598809 -12.394465 1.705274
LeftLeg -2.008687 -0.000000 0.000000
LeftFoot -14.680422 15.744530 334.524927
LeftToeBase 2.426477 -0.000000 -0.000000
RightUpLeg -7.697568 -11.784865 4.260907
RightLeg 8.960758 -0.000000 -0.000000
RightFoot -12.240995 -5.603874 -5.125186
RightToeBase 0.857307 -0.000000 -0.000000
393
root -20.785100 32.942868 -6.060510 -353.705942 15.589560 -0.932834
Spine -2.656275 9.203808 -0.266168
Head 14.197191 21.749420 9.652803
LeftShoulder -16.186100 18.190441 27.825070
LeftArm 23.563848 -24.331561 -21.414368
LeftForeArm 10.335297 -0.000000 16.765884
LeftHand -30.101856 -0.000000 4.482611
LeftHandThumb1 -26.253704 0.000000 33.147579
RightShoulder -17.543230 12.708261 -39.188977
RightArm -13.730981 6.702385 32.558322
RightForeArm -29.285407 -0.000000 23.118081
RightHand -13.537547 -0.000000 -1.884219
RightHandThumb1 -24.326973 -0.000000 -32.862282
LeftUpLeg -4.432451 -12.293890 1.688668
LeftLeg -2.102478 -0.000000 0.000000
LeftFoot -14.675365 15.721398 334.611155
LeftToeBase 2.645006 -0.000000 -0.000000
RightUpLeg -7.346745 -11.770745 4.223625
RightLeg 8.345001 -0.000000 -0.000000
RightFoot -11.849834 -5.326911 -4.875973
RightToeBase 1.503931 -0.000000 -0.000000
394
root -20.742409 32.947896 -6.051707 -353.745741 15.482828 -1.006010
Spine -2.612672 9.297740 -0.117407
Head 14.432449 21.773164 9.583900
LeftShoulder -16.385719 18.242552 27.789741
LeftArm 23.555241 -24.265538 -21.594352
LeftForeArm 10.338138 -0.000000 16.711446
LeftHand -30.061552 -0.000000 3.879558
LeftHandThumb1 -26.253704 0.000000 33.147579
RightShoulder -17.471963 12.696492 -39.310557
RightArm -13.660852 6.755185 32.486570
RightForeArm -29.258581 -0.000000 22.725333
RightHand -13.093979 -0.000000 -1.616080
RightHandThumb1 -24.326973 -0.000000 -32.862282
LeftUpLeg -4.352645 -12.181036 1.658995
LeftLeg -2.114566 -0.000000 0.000000
LeftFoot -14.654207 15.667921 334.694921
LeftToeBase 2.738355 -0.000000 -0.000000
RightUpLeg -7.065690 -11.642183 4.171374
RightLeg 7.868071 -0.000000 -0.000000
RightFoot -11.468873 -5.239593 -4.750094
RightToeBase 1.966169 -0.000000 -0.000000
